# xmcd
#
# Track frame offsets:
#	150
#	45541
#	90444
#	143079
#	205508
#	274206
#	314491
#
# Disc length: 4596 seconds
#
# Revision: 1
# Processed by: cddbd v1.5.2PL0 Copyright (c) Steve Scherf et al.
# Submitted via: audiograbber 1.83.01
#
DISCID=5a11f207
DTITLE=Der Laborant - Kontakt
DYEAR=2011
DGENRE=Electronic
TTITLE0=Excelsis Dei
TTITLE1=Gefallener Engel
TTITLE2=Die Maschine
TTITLE3=Kontakt
TTITLE4=Lazarus
TTITLE5=Verwandlungen
TTITLE6=Störsignal
EXTD=slightly remastered Re-Release of the Original Album from 1998 with a bonu
EXTD=s track. Label: SynGate Records\nDer Laborant is the solo project from Ger
EXTD=d Wienekamp of "Rainbow Serpent"
EXTT0=
EXTT1=
EXTT2=
EXTT3=
EXTT4=
EXTT5=
EXTT6=Bonus track, only available with this release
PLAYORDER=
